<svg xmlns="http://www.w3.org/2000/svg" width="114.655" height="114.655" viewBox="0 0 114.655 114.655">
  <g id="그룹_2521" data-name="그룹 2521" transform="translate(45.272 -265.475) rotate(45)">
    <path id="패스_2860" data-name="패스 2860" d="M256.154,166.069H217.4a20.583,20.583,0,0,0-.37,3.933v78.663a4.841,4.841,0,0,0,.6,2.379,3.68,3.68,0,0,0,.324.539l1.888,2.616L234.9,275.151a2.293,2.293,0,0,0,3.743,0L253.7,254.2l1.9-2.633a2.179,2.179,0,0,0,.31-.523,4.963,4.963,0,0,0,.619-2.394V170A20.585,20.585,0,0,0,256.154,166.069Zm-4.27,81.9a2.322,2.322,0,0,1-.433,1.348l-1.237,1.728L247.94,254.2l-10.6,14.733a.7.7,0,0,1-1.145,0L225.6,254.2l-2.258-3.155-1.176-1.633a2.584,2.584,0,0,1-.5-1.523V170.828h30.21Z" transform="translate(0 4.939)" fill="#ff0090"/>
    <path id="패스_2861" data-name="패스 2861" d="M256.526,214.853v2.363a4.963,4.963,0,0,1-.619,2.394h-38.27a4.841,4.841,0,0,1-.6-2.379v-2.378Z" transform="translate(0 36.373)" fill="#ff0090"/>
    <g id="그룹_2520" data-name="그룹 2520" transform="translate(217.034 179.689)">
      <line id="선_43" data-name="선 43" x2="39.492" transform="translate(0 2.379)" fill="#ff0090"/>
      <rect id="사각형_1557" data-name="사각형 1557" width="39.492" height="4.757" transform="translate(0)" fill="#ff0090"/>
    </g>
    <path id="패스_2862" data-name="패스 2862" d="M251.714,163.337v7.5H221.846v-7.5h29.869m1.75-4.933h-33.37a3.1,3.1,0,0,0-3.06,3.139v14.224h39.492V161.543a3.1,3.1,0,0,0-3.062-3.139Z" transform="translate(0 0)" fill="#ff0090"/>
  </g>
</svg>
