<svg id="그룹_2505" data-name="그룹 2505" xmlns="http://www.w3.org/2000/svg" width="94.709" height="97.845" viewBox="0 0 94.709 97.845">
  <path id="패스_2855" data-name="패스 2855" d="M290.7,135.253H277.064a10.023,10.023,0,0,1-10.011-10.011V90.851A10.024,10.024,0,0,1,277.064,80.84H290.7a10.023,10.023,0,0,1,10.011,10.011v34.391A10.022,10.022,0,0,1,290.7,135.253ZM277.064,86.3a4.557,4.557,0,0,0-4.551,4.55v34.391a4.557,4.557,0,0,0,4.551,4.55H290.7a4.556,4.556,0,0,0,4.55-4.55V90.851a4.556,4.556,0,0,0-4.55-4.55Z" transform="translate(-267.053 -37.408)" fill="#ff0090"/>
  <path id="패스_2856" data-name="패스 2856" d="M327.767,153.275h-.033l-43.7-.519a2.73,2.73,0,0,1,.064-5.461l42.334.5a10.435,10.435,0,0,0,2.718-.311c6.049-1.558,9.645-3.711,10.435-6.267a6.032,6.032,0,0,0,.187-1.906,14.926,14.926,0,0,1,.939-5.654,19.47,19.47,0,0,1,2.026-3.97c.806-1.285,1.085-1.78,1.063-2.785a4.573,4.573,0,0,0-.26-1.427,10.45,10.45,0,0,1-.513-3.457,11.415,11.415,0,0,1,1.1-4.88,3.61,3.61,0,0,0,.459-2.019,3.068,3.068,0,0,0-.473-1.449,10.041,10.041,0,0,1-1.227-4.07,11.1,11.1,0,0,1,.177-3.435,5.093,5.093,0,0,0,.126-1.331c-.14-2.6-2.355-4.678-2.8-5.067-3.358-2.961-9.3-2.151-12.849-1.667a76.284,76.284,0,0,1-11.493.643,7.267,7.267,0,0,1-5.57-2.435,5.67,5.67,0,0,1-1.218-3.1,2.753,2.753,0,0,1,.151-1.045,73.047,73.047,0,0,0,3.735-16.276c.743-6.808-.106-8.229-.561-8.994-1.857-3.118-5.836-4.993-7.177-4.352-.442.209-.6,2.272-.743,4.092a51.927,51.927,0,0,1-2.643,13.841,72.03,72.03,0,0,1-8.027,15.768,90.283,90.283,0,0,1-6.555,8.952,2.731,2.731,0,1,1-4.2-3.493,84.482,84.482,0,0,0,6.154-8.4,66.122,66.122,0,0,0,7.457-14.589,47.014,47.014,0,0,0,2.368-12.5c.291-3.779.544-7.044,3.853-8.608,4.616-2.184,11.305,1.631,14.2,6.493,1.382,2.321,2.082,5.2,1.3,12.381a78.346,78.346,0,0,1-3.686,16.555,3.645,3.645,0,0,0,1.4.251,73.022,73.022,0,0,0,10.515-.6c4.185-.572,11.966-1.633,17.2,2.98,1.025.9,4.388,4.217,4.64,8.873a10.377,10.377,0,0,1-.208,2.6,5.842,5.842,0,0,0-.113,1.926,4.769,4.769,0,0,0,.641,2.086,8.39,8.39,0,0,1,1.068,3.549,8.834,8.834,0,0,1-.888,4.589,6.045,6.045,0,0,0-.652,2.765,5.255,5.255,0,0,0,.286,1.853,9.875,9.875,0,0,1,.486,2.869,9.638,9.638,0,0,1-1.9,5.806,14.3,14.3,0,0,0-1.516,2.929,9.48,9.48,0,0,0-.612,3.79,11.056,11.056,0,0,1-.431,3.522c-1.514,4.891-7.108,8.286-16.433,10.377A2.739,2.739,0,0,1,327.767,153.275Z" transform="translate(-255.342 -56.979)" fill="#ff0090"/>
</svg>
