<svg xmlns="http://www.w3.org/2000/svg" width="102.512" height="102.51" viewBox="0 0 102.512 102.51">
  <g id="그룹_2514" data-name="그룹 2514" transform="translate(-475.291 -57.99)">
    <path id="패스_2858" data-name="패스 2858" d="M518.217,120.248a2.667,2.667,0,0,1-1.278-.326L476.687,98.007a2.672,2.672,0,0,1,.371-4.863l97.164-35a2.674,2.674,0,0,1,2.8,4.406l-56.911,56.912A2.675,2.675,0,0,1,518.217,120.248ZM484.471,96.157l33.268,18.113,47.037-47.037Z" transform="translate(0)" fill="#ff0090"/>
    <path id="패스_2859" data-name="패스 2859" d="M522.462,160.5a2.67,2.67,0,0,1-2.347-1.4L498.2,118.852a2.672,2.672,0,0,1,.456-3.169l56.912-56.911a2.674,2.674,0,0,1,4.406,2.8l-35,97.162a2.674,2.674,0,0,1-2.312,1.761C522.6,160.5,522.53,160.5,522.462,160.5Zm-18.611-42.448,18.113,33.268,28.924-80.307Z" transform="translate(17.67 0)" fill="#ff0090"/>
  </g>
</svg>
