<svg id="그룹_2507" data-name="그룹 2507" xmlns="http://www.w3.org/2000/svg" width="100.6" height="99.728" viewBox="0 0 100.6 99.728">
  <path id="패스_2857" data-name="패스 2857" d="M104.113,58.147a49.865,49.865,0,0,0-34.8,80.839.948.948,0,0,1,.086,1.088,48.825,48.825,0,0,1-10.876,12.61,2.726,2.726,0,0,0,1.292,4.805,21.538,21.538,0,0,0,3.367.2c4.154,0,11.853-.761,21.38-5.237a1.661,1.661,0,0,1,1.453.016,49.563,49.563,0,0,0,24.864,5.171,49.868,49.868,0,1,0-6.764-99.494Zm8.023,93.935A44.083,44.083,0,0,1,86.2,146.37a1.674,1.674,0,0,0-1.594-.031c-1.731.89-3.4,1.658-4.993,2.3a48.048,48.048,0,0,1-12.341,3.313,54.814,54.814,0,0,0,6.334-8.264c.97-1.542,1.786-3.014,2.474-4.392a.945.945,0,0,0-.171-1.079,42.842,42.842,0,0,1-3.431-4.121,44.382,44.382,0,1,1,39.655,17.982Z" transform="translate(-57.521 -57.98)" fill="#ff0090"/>
  <g id="그룹_2506" data-name="그룹 2506" transform="translate(27.509 45.889)">
    <circle id="타원_78" data-name="타원 78" cx="3.911" cy="3.911" r="3.911" fill="#ff0090"/>
    <circle id="타원_79" data-name="타원 79" cx="3.911" cy="3.911" r="3.911" transform="translate(18.88)" fill="#ff0090"/>
    <circle id="타원_80" data-name="타원 80" cx="3.911" cy="3.911" r="3.911" transform="translate(37.759)" fill="#ff0090"/>
  </g>
</svg>
