<svg xmlns="http://www.w3.org/2000/svg" width="64.24" height="52.637" viewBox="0 0 64.24 52.637">
  <g id="그룹_2435" data-name="그룹 2435" transform="translate(237.17 -427.264)">
    <path id="패스_164" data-name="패스 164" d="M-174.516,450.172h-61.069a1.125,1.125,0,0,1-1.086-1.161,1.124,1.124,0,0,1,1.086-1.16h61.069a1.125,1.125,0,0,1,1.086,1.16A1.126,1.126,0,0,1-174.516,450.172Z" transform="translate(0 -4.146)" fill="#ff0090" stroke="#ff0090" stroke-miterlimit="10" stroke-width="1"/>
    <path id="패스_165" data-name="패스 165" d="M-175.879,486.252h-57.079a.675.675,0,0,1-.651-.7.675.675,0,0,1,.651-.7h57.079a.675.675,0,0,1,.652.7A.675.675,0,0,1-175.879,486.252Z" transform="translate(-0.632 -11.784)" fill="#ff0090" stroke="#ff0090" stroke-miterlimit="10" stroke-width="1"/>
    <path id="패스_166" data-name="패스 166" d="M-175.879,455.359h-57.079a.675.675,0,0,1-.651-.7.675.675,0,0,1,.651-.7h57.079a.675.675,0,0,1,.652.7A.675.675,0,0,1-175.879,455.359Z" transform="translate(-0.632 -5.408)" fill="#ff0090" stroke="#ff0090" stroke-miterlimit="10" stroke-width="1"/>
    <path id="패스_167" data-name="패스 167" d="M-174.516,492.226h-61.069a1.125,1.125,0,0,1-1.086-1.161,1.124,1.124,0,0,1,1.086-1.16h61.069a1.125,1.125,0,0,1,1.086,1.16A1.126,1.126,0,0,1-174.516,492.226Z" transform="translate(0 -12.825)" fill="#ff0090" stroke="#ff0090" stroke-miterlimit="10" stroke-width="1"/>
    <g id="그룹_2434" data-name="그룹 2434" transform="translate(-232.606 453.389)">
      <path id="패스_168" data-name="패스 168" d="M-230.464,477.073a1.125,1.125,0,0,1-1.085-1.16v-14.7a1.124,1.124,0,0,1,1.085-1.16,1.124,1.124,0,0,1,1.086,1.16v14.7A1.125,1.125,0,0,1-230.464,477.073Z" transform="translate(231.549 -460.053)" fill="#ff0090" stroke="#ff0090" stroke-miterlimit="10" stroke-width="1"/>
      <path id="패스_169" data-name="패스 169" d="M-219.258,477.073a1.125,1.125,0,0,1-1.085-1.16v-14.7a1.124,1.124,0,0,1,1.085-1.16,1.124,1.124,0,0,1,1.086,1.16v14.7A1.125,1.125,0,0,1-219.258,477.073Z" transform="translate(229.236 -460.053)" fill="#ff0090" stroke="#ff0090" stroke-miterlimit="10" stroke-width="1"/>
      <path id="패스_170" data-name="패스 170" d="M-208.052,477.073a1.125,1.125,0,0,1-1.085-1.16v-14.7a1.124,1.124,0,0,1,1.085-1.16,1.124,1.124,0,0,1,1.086,1.16v14.7A1.125,1.125,0,0,1-208.052,477.073Z" transform="translate(226.923 -460.053)" fill="#ff0090" stroke="#ff0090" stroke-miterlimit="10" stroke-width="1"/>
      <path id="패스_171" data-name="패스 171" d="M-196.846,477.073a1.125,1.125,0,0,1-1.085-1.16v-14.7a1.124,1.124,0,0,1,1.085-1.16,1.124,1.124,0,0,1,1.086,1.16v14.7A1.125,1.125,0,0,1-196.846,477.073Z" transform="translate(224.611 -460.053)" fill="#ff0090" stroke="#ff0090" stroke-miterlimit="10" stroke-width="1"/>
      <path id="패스_172" data-name="패스 172" d="M-185.639,477.073a1.125,1.125,0,0,1-1.086-1.16v-14.7a1.124,1.124,0,0,1,1.086-1.16,1.124,1.124,0,0,1,1.085,1.16v14.7A1.125,1.125,0,0,1-185.639,477.073Z" transform="translate(222.298 -460.053)" fill="#ff0090" stroke="#ff0090" stroke-miterlimit="10" stroke-width="1"/>
      <path id="패스_173" data-name="패스 173" d="M-174.7,477.073a1.125,1.125,0,0,1-1.085-1.16v-14.7a1.124,1.124,0,0,1,1.085-1.16,1.125,1.125,0,0,1,1.086,1.16v14.7A1.125,1.125,0,0,1-174.7,477.073Z" transform="translate(220.039 -460.053)" fill="#ff0090" stroke="#ff0090" stroke-miterlimit="10" stroke-width="1"/>
      <path id="패스_174" data-name="패스 174" d="M-163.754,477.073a1.125,1.125,0,0,1-1.086-1.16v-14.7a1.124,1.124,0,0,1,1.086-1.16,1.124,1.124,0,0,1,1.085,1.16v14.7A1.125,1.125,0,0,1-163.754,477.073Z" transform="translate(217.781 -460.053)" fill="#ff0090" stroke="#ff0090" stroke-miterlimit="10" stroke-width="1"/>
    </g>
    <path id="패스_175" data-name="패스 175" d="M-188.69,441.313a1.086,1.086,0,0,1-1.086-1.086,10.3,10.3,0,0,0-10.293-10.293,10.305,10.305,0,0,0-10.294,10.293,1.085,1.085,0,0,1-1.085,1.086,1.085,1.085,0,0,1-1.086-1.086,12.478,12.478,0,0,1,12.465-12.464A12.478,12.478,0,0,1-187.6,440.228,1.085,1.085,0,0,1-188.69,441.313Z" transform="translate(-4.982)" fill="#ff0090" stroke="#ff0090" stroke-miterlimit="10" stroke-width="1"/>
  </g>
</svg>
