<svg xmlns="http://www.w3.org/2000/svg" width="150.32" height="111.812" viewBox="0 0 150.32 111.812">
  <g id="그룹_2448" data-name="그룹 2448" transform="translate(-318.707 -429.281)">
    <g id="레이어_3" data-name="레이어 3" transform="translate(318.707 429.281)">
      <g id="그룹_2430" data-name="그룹 2430">
        <path id="패스_152" data-name="패스 152" d="M463.453,458.191H318.293a2.58,2.58,0,1,1,0-5.159h145.16a2.58,2.58,0,1,1,0,5.159Z" transform="translate(-315.713 -417.027)" fill="#fff"/>
        <path id="패스_153" data-name="패스 153" d="M458.532,517.681H322.857a1.548,1.548,0,1,1,0-3.1H458.532a1.548,1.548,0,1,1,0,3.1Z" transform="translate(-315.535 -415.067)" fill="#fff"/>
        <path id="패스_154" data-name="패스 154" d="M458.532,464.872H322.857a1.548,1.548,0,1,1,0-3.1H458.532a1.548,1.548,0,1,1,0,3.1Z" transform="translate(-315.535 -416.749)" fill="#fff"/>
        <path id="패스_155" data-name="패스 155" d="M463.453,526.659H318.293a2.58,2.58,0,1,1,0-5.159h145.16a2.58,2.58,0,1,1,0,5.159Z" transform="translate(-315.713 -414.847)" fill="#fff"/>
        <g id="그룹_2429" data-name="그룹 2429" transform="translate(9.66 55.764)">
          <path id="패스_156" data-name="패스 156" d="M327.655,510.008a2.579,2.579,0,0,1-2.58-2.58V474.761a2.58,2.58,0,1,1,5.159,0v32.668A2.579,2.579,0,0,1,327.655,510.008Z" transform="translate(-325.075 -472.181)" fill="#fff"/>
          <path id="패스_157" data-name="패스 157" d="M348.142,510.008a2.579,2.579,0,0,1-2.58-2.58V474.761a2.58,2.58,0,0,1,5.159,0v32.668A2.58,2.58,0,0,1,348.142,510.008Z" transform="translate(-324.423 -472.181)" fill="#fff"/>
          <path id="패스_158" data-name="패스 158" d="M368.628,510.008a2.579,2.579,0,0,1-2.58-2.58V474.761a2.58,2.58,0,1,1,5.159,0v32.668A2.579,2.579,0,0,1,368.628,510.008Z" transform="translate(-323.771 -472.181)" fill="#fff"/>
          <path id="패스_159" data-name="패스 159" d="M389.115,510.008a2.579,2.579,0,0,1-2.58-2.58V474.761a2.58,2.58,0,1,1,5.159,0v32.668A2.579,2.579,0,0,1,389.115,510.008Z" transform="translate(-323.118 -472.181)" fill="#fff"/>
          <path id="패스_160" data-name="패스 160" d="M409.6,510.008a2.58,2.58,0,0,1-2.58-2.58V474.761a2.58,2.58,0,0,1,5.159,0v32.668A2.579,2.579,0,0,1,409.6,510.008Z" transform="translate(-322.466 -472.181)" fill="#fff"/>
          <path id="패스_161" data-name="패스 161" d="M429.607,510.008a2.579,2.579,0,0,1-2.58-2.58V474.761a2.58,2.58,0,0,1,5.159,0v32.668A2.579,2.579,0,0,1,429.607,510.008Z" transform="translate(-321.829 -472.181)" fill="#fff"/>
          <path id="패스_162" data-name="패스 162" d="M449.612,510.008a2.579,2.579,0,0,1-2.58-2.58V474.761a2.58,2.58,0,1,1,5.159,0v32.668A2.579,2.579,0,0,1,449.612,510.008Z" transform="translate(-321.192 -472.181)" fill="#fff"/>
        </g>
        <path id="패스_163" data-name="패스 163" d="M416.515,450.345a2.58,2.58,0,0,1-2.58-2.58,24.468,24.468,0,0,0-48.936,0,2.58,2.58,0,1,1-5.159,0,29.627,29.627,0,1,1,59.254,0A2.58,2.58,0,0,1,416.515,450.345Z" transform="translate(-314.308 -418.138)" fill="#fff"/>
      </g>
    </g>
  </g>
</svg>
