<svg xmlns="http://www.w3.org/2000/svg" width="322.47" height="263.49" viewBox="0 0 322.47 263.49">
  <g id="그룹_2441" data-name="그룹 2441" transform="translate(237.17 -427.264)">
    <path id="패스_164" data-name="패스 164" d="M79.281,459.651H-231.151a5.719,5.719,0,0,1-5.519-5.9,5.715,5.715,0,0,1,5.519-5.9H79.281a5.913,5.913,0,0,1,0,11.8Z" transform="translate(0 60.948)" fill="#ff0090" stroke="#ff0090" stroke-miterlimit="10" stroke-width="1"/>
    <path id="패스_165" data-name="패스 165" d="M59.851,491.939H-230.3a3.429,3.429,0,0,1-3.308-3.538,3.43,3.43,0,0,1,3.308-3.542H59.851a3.548,3.548,0,0,1,0,7.08Z" transform="translate(9.288 173.238)" fill="#ff0090" stroke="#ff0090" stroke-miterlimit="10" stroke-width="1"/>
    <path id="패스_166" data-name="패스 166" d="M59.851,461.046H-230.3a3.43,3.43,0,0,1-3.308-3.542,3.429,3.429,0,0,1,3.308-3.538H59.851a3.548,3.548,0,0,1,0,7.08Z" transform="translate(9.288 79.502)" fill="#ff0090" stroke="#ff0090" stroke-miterlimit="10" stroke-width="1"/>
    <path id="패스_167" data-name="패스 167" d="M79.281,501.705H-231.151a5.719,5.719,0,0,1-5.519-5.9,5.715,5.715,0,0,1,5.519-5.9H79.281a5.913,5.913,0,0,1,0,11.8Z" transform="translate(0 188.549)" fill="#ff0090" stroke="#ff0090" stroke-miterlimit="10" stroke-width="1"/>
    <g id="그룹_2434" data-name="그룹 2434" transform="translate(-216.011 558.025)">
      <path id="패스_168" data-name="패스 168" d="M-226.034,546.57a5.717,5.717,0,0,1-5.515-5.9V465.951a5.715,5.715,0,0,1,5.515-5.9,5.715,5.715,0,0,1,5.519,5.9v74.721A5.718,5.718,0,0,1-226.034,546.57Z" transform="translate(231.549 -460.053)" fill="#ff0090" stroke="#ff0090" stroke-miterlimit="10" stroke-width="1"/>
      <path id="패스_169" data-name="패스 169" d="M-214.828,546.57a5.717,5.717,0,0,1-5.515-5.9V465.951a5.715,5.715,0,0,1,5.515-5.9,5.715,5.715,0,0,1,5.519,5.9v74.721A5.718,5.718,0,0,1-214.828,546.57Z" transform="translate(265.55 -460.053)" fill="#ff0090" stroke="#ff0090" stroke-miterlimit="10" stroke-width="1"/>
      <path id="패스_170" data-name="패스 170" d="M-203.622,546.57a5.717,5.717,0,0,1-5.515-5.9V465.951a5.715,5.715,0,0,1,5.515-5.9,5.715,5.715,0,0,1,5.519,5.9v74.721A5.718,5.718,0,0,1-203.622,546.57Z" transform="translate(299.552 -460.053)" fill="#ff0090" stroke="#ff0090" stroke-miterlimit="10" stroke-width="1"/>
      <path id="패스_171" data-name="패스 171" d="M-192.416,546.57a5.717,5.717,0,0,1-5.515-5.9V465.951a5.715,5.715,0,0,1,5.515-5.9,5.715,5.715,0,0,1,5.519,5.9v74.721A5.718,5.718,0,0,1-192.416,546.57Z" transform="translate(333.553 -460.053)" fill="#ff0090" stroke="#ff0090" stroke-miterlimit="10" stroke-width="1"/>
      <path id="패스_172" data-name="패스 172" d="M-181.206,546.57a5.718,5.718,0,0,1-5.519-5.9V465.951a5.715,5.715,0,0,1,5.519-5.9,5.715,5.715,0,0,1,5.515,5.9v74.721A5.717,5.717,0,0,1-181.206,546.57Z" transform="translate(367.554 -460.053)" fill="#ff0090" stroke="#ff0090" stroke-miterlimit="10" stroke-width="1"/>
      <path id="패스_173" data-name="패스 173" d="M-170.267,546.57a5.717,5.717,0,0,1-5.515-5.9V465.951a5.715,5.715,0,0,1,5.515-5.9,5.718,5.718,0,0,1,5.519,5.9v74.721A5.72,5.72,0,0,1-170.267,546.57Z" transform="translate(400.758 -460.053)" fill="#ff0090" stroke="#ff0090" stroke-miterlimit="10" stroke-width="1"/>
      <path id="패스_174" data-name="패스 174" d="M-159.321,546.57a5.718,5.718,0,0,1-5.519-5.9V465.951a5.715,5.715,0,0,1,5.519-5.9,5.715,5.715,0,0,1,5.515,5.9v74.721A5.717,5.717,0,0,1-159.321,546.57Z" transform="translate(433.958 -460.053)" fill="#ff0090" stroke="#ff0090" stroke-miterlimit="10" stroke-width="1"/>
    </g>
    <path id="패스_175" data-name="패스 175" d="M-91.329,496.64a5.519,5.519,0,0,1-5.519-5.519A52.381,52.381,0,0,0-149.172,438.8,52.385,52.385,0,0,0-201.5,491.121a5.516,5.516,0,0,1-5.515,5.519,5.516,5.516,0,0,1-5.519-5.519,63.431,63.431,0,0,1,63.361-63.357,63.428,63.428,0,0,1,63.357,63.357A5.516,5.516,0,0,1-91.329,496.64Z" transform="translate(73.237 0)" fill="#ff0090" stroke="#ff0090" stroke-miterlimit="10" stroke-width="1"/>
  </g>
</svg>
