<svg id="그룹_1939" data-name="그룹 1939" xmlns="http://www.w3.org/2000/svg" width="60.021" height="55.756" viewBox="0 0 60.021 55.756">
  <path id="패스_132" data-name="패스 132" d="M759.422,113.38H719.889a4.493,4.493,0,0,1-4.488-4.488V84.474h-1.268a4.49,4.49,0,0,1-2.571-8.167L737.084,58.43a4.506,4.506,0,0,1,5.139,0l25.526,17.881a4.464,4.464,0,0,1,1.7,5.028v0a4.475,4.475,0,0,1-4.275,3.136h-1.269v24.418A4.493,4.493,0,0,1,759.422,113.38ZM717.651,79.974a2.25,2.25,0,0,1,2.25,2.25v26.668l39.521-.012-.013-26.656a2.25,2.25,0,0,1,2.25-2.25h3.48L739.645,62.116l-25.5,17.877Zm49.658.683h0Z" transform="translate(-709.645 -57.624)" fill="#b8b8b8"/>
  <path id="패스_133" data-name="패스 133" d="M750.57,113.38H740.064a2.25,2.25,0,0,1-2.25-2.25V94.2a2.25,2.25,0,0,1,2.25-2.25H750.57a2.25,2.25,0,0,1,2.25,2.25V111.13A2.25,2.25,0,0,1,750.57,113.38Zm-8.256-4.5h6.006V96.454h-6.006Z" transform="translate(-709.645 -57.624)" fill="#b8b8b8"/>
</svg>
