<svg id="그룹_1852" data-name="그룹 1852" xmlns="http://www.w3.org/2000/svg" width="56.888" height="56.878" viewBox="0 0 56.888 56.878">
  <path id="패스_1100" data-name="패스 1100" d="M572.611,61.812a9.3,9.3,0,0,0,6.873,7.287A9.9,9.9,0,0,1,572.611,61.812Z" transform="translate(-553.333 -57.166)" fill="#b8b8b8"/>
  <path id="패스_1101" data-name="패스 1101" d="M580.959,69.36c.276.015.539.03.8.03a8,8,0,0,1-.862-.047A.092.092,0,0,0,580.959,69.36Z" transform="translate(-553.333 -57.166)" fill="#b8b8b8"/>
  <path id="패스_1102" data-name="패스 1102" d="M605.339,57.17h-15.8a2.57,2.57,0,0,0-2.6,2.539c0,.04,0,.08,0,.12a5.827,5.827,0,0,1-.2,1.673,5.153,5.153,0,0,1-4.058,3.659,5.409,5.409,0,0,1-2.445-.154,4.87,4.87,0,0,1-.923-.4,5.155,5.155,0,0,1-2.72-4.535v-.139a2.625,2.625,0,0,0-2.479-2.763l-.119,0H558.206a4.875,4.875,0,0,0-4.873,4.873v8.47a4.875,4.875,0,0,0,4.873,4.873h1.486v32.835a5.831,5.831,0,0,0,5.826,5.827h32.544a5.806,5.806,0,0,0,5.81-5.8V75.385h1.476a4.874,4.874,0,0,0,4.873-4.873V62.043a4.874,4.874,0,0,0-4.877-4.873Zm.723,13.342a.721.721,0,0,1-.719.723h-1.479a4.152,4.152,0,0,0-4.15,4.15v32.851a1.654,1.654,0,0,1-1.646,1.659H565.51a1.673,1.673,0,0,1-1.673-1.673V75.385a4.153,4.153,0,0,0-4.15-4.15h-1.475a.721.721,0,0,1-.723-.719V62.043a.721.721,0,0,1,.719-.723h14.315a.1.1,0,0,0,.015.062c.032.139.047.293.077.43a9.906,9.906,0,0,0,6.871,7.287c.2.062.415.107.63.154.261.03.522.077.785.092a8,8,0,0,0,.862.047h.015a8.854,8.854,0,0,0,.906-.047,6.392,6.392,0,0,0,.768-.107,4.842,4.842,0,0,0,.492-.107,4.425,4.425,0,0,0,.6-.154c.246-.077.492-.168.738-.261.092-.03.167-.077.261-.107.23-.107.446-.216.669-.335a7.777,7.777,0,0,0,.768-.462s0-.015.015,0c.246-.184.477-.353.692-.538a6.033,6.033,0,0,0,.669-.6c.216-.216.415-.43.616-.669.167-.216.323-.43.477-.646a9.271,9.271,0,0,0,.523-.845,5.215,5.215,0,0,0,.323-.669c.107-.246.2-.492.293-.738.047-.167.107-.334.154-.5.062-.215.122-.43.167-.645s.077-.43.107-.646h14.327a.722.722,0,0,1,.723.719v0Z" transform="translate(-553.333 -57.166)" fill="#b8b8b8"/>
</svg>
