<svg id="패스_1099" data-name="패스 1099" xmlns="http://www.w3.org/2000/svg" width="57.016" height="57" viewBox="0 0 57.016 57">
  <path id="패스_131" data-name="패스 131" d="M245.887,61.359v13.43a4.192,4.192,0,0,1-4.192,4.193H228.248V92.335H241.7a4.192,4.192,0,0,1,4.192,4.192v13.447h13.354V96.527a4.192,4.192,0,0,1,4.192-4.192h13.446V78.982H263.433a4.192,4.192,0,0,1-4.192-4.193V61.359H245.887M244.5,57.166h16.13a2.8,2.8,0,0,1,2.8,2.8V74.789h14.834a2.806,2.806,0,0,1,2.8,2.805V93.723a2.806,2.806,0,0,1-2.8,2.8H263.433v14.835a2.8,2.8,0,0,1-2.8,2.8H244.5a2.8,2.8,0,0,1-2.8-2.8V96.527H226.86a2.8,2.8,0,0,1-2.8-2.8V77.594a2.806,2.806,0,0,1,2.8-2.805H241.7V59.97A2.8,2.8,0,0,1,244.5,57.166Z" transform="translate(-224.056 -57.166)" fill="#b8b8b8"/>
</svg>
